# xmcd
#
# Track frame offsets:
#	150
#	16865
#	33595
#	55617
#	72850
#	94640
#	112407
#	138015
#	155127
#	175115
#
# Disc length: 2564 seconds
#
# Revision: 1
# Processed by: cddbd v1.5.2PL0 Copyright (c) Steve Scherf et al.
# Submitted via: EasyCDDAExtractor 16.0.9.1
#
DISCID=7f0a020a
DTITLE=陶晶莹 - 陶子愛唱歌愛創作2001晶選集
DYEAR=2001
DGENRE=Pop
TTITLE0=夢見
TTITLE1=給了我什麼呀
TTITLE2=Blue
TTITLE3=年紀大了一點
TTITLE4=晚歸的男人
TTITLE5=我變了
TTITLE6=不要臉
TTITLE7=是不是聽你歌唱
TTITLE8=十天又三天
TTITLE9=Stay
EXTD=
EXTT0=
EXTT1=
EXTT2=
EXTT3=
EXTT4=
EXTT5=
EXTT6=
EXTT7=
EXTT8=
EXTT9=
PLAYORDER=
